HIERARCHY
ROOT SpineBase
{
  OFFSET 0.000000 0.000000 0.000000
  CHANNELS 6 Xposition Yposition Zposition Zrotation Xrotation Yrotation
  JOINT SpineMid
  {
    OFFSET 0.000000 32.523676 0.000000
    CHANNELS 3 Zrotation Xrotation Yrotation
    JOINT SpineShoulder
    {
      OFFSET -0.113663 23.758986 -1.072240
      CHANNELS 3 Zrotation Xrotation Yrotation
      JOINT Neck
      {
        OFFSET 0.042442 7.819182 -0.811366
        CHANNELS 3 Zrotation Xrotation Yrotation
        JOINT Head
        {
          OFFSET -8.370164 11.549864 2.153479
          CHANNELS 3 Zrotation Xrotation Yrotation
          End Site
          {
            OFFSET 0 0 0
          }
        }
      }
      JOINT ShoulderLeft
      {
        OFFSET -8.223826 -0.815707 12.287876
        CHANNELS 3 Zrotation Xrotation Yrotation
        JOINT ElbowLeft
        {
          OFFSET 0.962860 -22.719099 13.420753
          CHANNELS 3 Zrotation Xrotation Yrotation
          JOINT WristLeft
          {
            OFFSET -13.495586 -21.231438 8.478033
            CHANNELS 3 Zrotation Xrotation Yrotation
            JOINT HandLeft
            {
              OFFSET 0.980123 -8.161685 -3.689557
              CHANNELS 3 Zrotation Xrotation Yrotation
              JOINT HandTipLeft
              {
                OFFSET -0.470020 -0.502287 -0.904939
                CHANNELS 3 Zrotation Xrotation Yrotation
                End Site
                {
                  OFFSET 0 0 0
                }
              }
              JOINT ThumbLeft
              {
                OFFSET -0.859734 -0.214747 -1.688489
                CHANNELS 3 Zrotation Xrotation Yrotation
                End Site
                {
                  OFFSET 0 0 0
                }
              }
            }
          }
        }
      }
      JOINT ShoulderRight
      {
        OFFSET 6.250181 -6.907138 -12.987230
        CHANNELS 3 Zrotation Xrotation Yrotation
        JOINT ElbowRight
        {
          OFFSET -1.336473 -27.209858 -2.600685
          CHANNELS 3 Zrotation Xrotation Yrotation
          JOINT WristRight
          {
            OFFSET -17.125867 -21.261211 6.143353
            CHANNELS 3 Zrotation Xrotation Yrotation
            JOINT HandRight
            {
              OFFSET -10.018003 -13.688113 1.089421
              CHANNELS 3 Zrotation Xrotation Yrotation
              JOINT HandTipRight
              {
                OFFSET -4.099534 -6.391678 -0.934106
                CHANNELS 3 Zrotation Xrotation Yrotation
                End Site
                {
                  OFFSET 0 0 0
                }
              }
              JOINT ThumbRight
              {
                OFFSET 3.292679 -1.174632 -0.746153
                CHANNELS 3 Zrotation Xrotation Yrotation
                End Site
                {
                  OFFSET 0 0 0
                }
              }
            }
          }
        }
      }
    }
  }
  JOINT HipLeft
  {
    OFFSET -2.694079 -0.816550 0.171866
    CHANNELS 3 Zrotation Xrotation Yrotation
    JOINT KneeLeft
    {
      OFFSET 13.016701 -28.520409 26.819995
      CHANNELS 3 Zrotation Xrotation Yrotation
      JOINT AnkleLeft
      {
        OFFSET -8.234051 -48.602138 -7.565198
        CHANNELS 3 Zrotation Xrotation Yrotation
        JOINT FootLeft
        {
          OFFSET -6.457178 -6.409685 3.525068
          CHANNELS 3 Zrotation Xrotation Yrotation
          End Site
          {
            OFFSET 0 0 0
          }
        }
      }
    }
  }
  JOINT HipRight
  {
    OFFSET 3.336683 1.417875 -7.070914
    CHANNELS 3 Zrotation Xrotation Yrotation
    JOINT KneeRight
    {
      OFFSET 0.308208 -40.541027 1.277136
      CHANNELS 3 Zrotation Xrotation Yrotation
      JOINT AnkleRight
      {
        OFFSET 7.864520 -37.929712 5.410792
        CHANNELS 3 Zrotation Xrotation Yrotation
        JOINT FootRight
        {
          OFFSET -2.846116 -8.469341 -4.624856
          CHANNELS 3 Zrotation Xrotation Yrotation
          End Site
          {
            OFFSET 0 0 0
          }
        }
      }
    }
  }
}
MOTION
Frames: 9
Frame Time: 0.033333
-14.942303 86.965421 390.262659 -0.000000 0.000000 50.217251 -0.000000 -0.000000 -50.217251 -0.000000 0.000000 0.000000 -0.000000 0.000000 0.000000 0.000000 0.000000 0.000000 -0.000000 0.000000 0.000000 -0.000000 0.000000 0.000000 -0.000000 0.000000 0.000000 -0.000000 0.000000 0.000000 0.000000 0.000000 0.000000 0.000000 0.000000 0.000000 -0.000000 0.000000 0.000000 -0.000000 0.000000 0.000000 -0.000000 0.000000 0.000000 -0.000000 0.000000 0.000000 0.000000 0.000000 0.000000 0.000000 0.000000 0.000000 -0.000000 -0.000000 -50.217251 -0.000000 0.000000 0.000000 -0.000000 0.000000 0.000000 0.000000 0.000000 0.000000 -0.000000 -0.000000 -50.217251 -0.000000 0.000000 0.000000 -0.000000 0.000000 0.000000 0.000000 0.000000 0.000000
-15.038384 87.444141 390.756486 -0.610295 -1.701640 51.683994 -0.557377 0.126822 -51.745184 0.045611 0.283957 -0.035826 -1.893916 1.298829 0.359051 0.000000 0.000000 0.000000 1.006702 1.778048 0.079322 -0.000000 0.000000 0.000000 -0.000000 0.000000 0.000000 -0.000000 0.000000 0.000000 0.000000 0.000000 0.000000 0.000000 0.000000 0.000000 -0.803868 0.449319 0.352971 3.664883 1.766308 -0.142616 0.211085 -0.835293 0.294958 -4.672937 1.332104 -0.602083 0.000000 0.000000 0.000000 0.000000 0.000000 0.000000 2.147052 4.267167 -53.035535 4.973451 -3.334657 1.280471 1.423746 7.977929 -5.606193 0.000000 0.000000 0.000000 2.972289 0.924581 -51.693044 -0.506900 -1.203638 -0.030435 -0.684470 0.689561 0.145393 0.000000 0.000000 0.000000
-15.128010 87.857340 391.041653 -1.227050 -3.293786 52.857736 -0.984854 0.264242 -52.984601 0.086386 0.501148 -0.066810 -3.686920 2.501173 0.829702 0.000000 0.000000 0.000000 1.935192 3.424249 0.124782 -0.000000 0.000000 0.000000 -0.000000 0.000000 0.000000 -0.000000 0.000000 0.000000 0.000000 0.000000 0.000000 0.000000 0.000000 0.000000 -1.158901 1.126568 0.656632 6.640565 3.078813 -0.294558 0.711283 -1.864404 0.841842 -9.258805 2.490079 -1.005572 0.000000 0.000000 0.000000 0.000000 0.000000 0.000000 4.628154 8.694863 -55.701458 10.516863 -7.353232 3.119946 2.444249 15.511335 -11.564227 0.000000 0.000000 0.000000 5.730611 1.462950 -52.923776 -1.921514 -1.973579 -0.185210 -0.367338 0.960645 0.374558 0.000000 0.000000 0.000000
-15.211182 88.205018 391.118161 -1.848537 -4.766602 53.737766 -1.280408 0.396076 -53.936653 0.122037 0.648442 -0.094491 -5.360154 3.600864 1.385385 0.000000 0.000000 0.000000 2.781832 4.928810 0.142854 -0.000000 0.000000 0.000000 -0.000000 0.000000 0.000000 -0.000000 0.000000 0.000000 0.000000 0.000000 0.000000 0.000000 0.000000 0.000000 -1.096750 2.014179 0.892133 8.898140 3.952125 -0.388256 1.455843 -3.125592 1.700082 -13.676829 3.573104 -1.230673 0.000000 0.000000 0.000000 0.000000 0.000000 0.000000 7.413498 13.206743 -58.217127 16.672589 -11.968190 5.643211 2.687776 22.331545 -17.358376 0.000000 0.000000 0.000000 8.239513 1.667030 -53.883623 -3.007805 -2.784748 -0.356560 -0.288134 1.290465 0.610950 0.000000 0.000000 0.000000
-15.287901 88.487176 390.986010 -2.472934 -6.111729 54.324263 -1.444950 0.509883 -54.602895 0.152614 0.724113 -0.120252 -6.898089 4.596008 1.999475 0.000000 0.000000 0.000000 3.543517 6.284337 0.139901 -0.000000 0.000000 0.000000 -0.000000 0.000000 0.000000 -0.000000 0.000000 0.000000 0.000000 0.000000 0.000000 0.000000 0.000000 0.000000 -0.632041 3.104823 1.037214 10.394938 4.392761 -0.370952 2.353637 -4.643101 2.909572 -17.789755 4.659692 -1.270967 0.000000 0.000000 0.000000 0.000000 0.000000 0.000000 10.447731 17.696592 -60.568270 23.476241 -17.021162 8.966314 1.837761 28.489985 -22.501548 0.000000 0.000000 0.000000 10.474722 1.584220 -54.555308 -4.182538 -3.477532 -0.572675 -0.032876 1.521064 0.876868 0.000000 0.000000 0.000000
-15.358165 88.703812 390.645199 -3.098345 -7.322259 54.617733 -1.481123 0.597261 -54.984425 0.178367 0.727422 -0.145270 -8.288463 5.488310 2.646674 0.000000 0.000000 0.000000 4.217655 7.485562 0.121979 -0.000000 0.000000 0.000000 -0.000000 0.000000 0.000000 -0.000000 0.000000 0.000000 0.000000 0.000000 0.000000 0.000000 0.000000 0.000000 0.240893 4.402555 1.064929 11.076170 4.393985 -0.204378 3.270040 -6.413838 4.466623 -21.407904 5.774565 -1.101901 0.000000 0.000000 0.000000 0.000000 0.000000 0.000000 13.643256 22.042283 -62.717563 30.942571 -22.287835 13.180146 -0.346982 34.173686 -26.546780 0.000000 0.000000 0.000000 12.422244 1.255271 -54.928531 -5.449911 -4.052253 -0.826872 0.401815 1.653233 1.169775 0.000000 0.000000 0.000000
-15.692563 88.775736 390.496982 -3.999636 -8.866198 53.841189 -1.281050 0.640612 -54.350653 0.153492 0.614154 -0.180367 -9.831179 6.541188 3.464154 0.000000 0.000000 0.000000 5.052694 8.950262 0.080928 -0.000000 0.000000 0.000000 -0.000000 0.000000 0.000000 -0.000000 0.000000 0.000000 0.000000 0.000000 0.000000 0.000000 0.000000 0.000000 1.654494 6.807990 0.974438 11.530947 3.793340 0.049728 3.721528 -10.588339 8.180917 -25.426032 8.836626 -0.833649 0.000000 0.000000 0.000000 0.000000 0.000000 0.000000 18.541791 28.351661 -64.419195 42.827538 -30.606510 21.014218 -11.416172 43.084931 -29.899861 0.000000 0.000000 0.000000 15.290019 0.897795 -54.295694 -7.371874 -4.962408 -1.200362 0.951112 2.230942 1.396174 0.000000 0.000000 0.000000
-15.783949 88.841525 389.821541 -4.630932 -9.777104 53.046365 -1.272530 0.613697 -53.668478 0.131571 0.430719 -0.212051 -10.707963 7.612445 4.305925 0.000000 0.000000 0.000000 5.673284 10.047144 0.035727 -0.000000 0.000000 0.000000 -0.000000 0.000000 0.000000 -0.000000 0.000000 0.000000 0.000000 0.000000 0.000000 0.000000 0.000000 0.000000 3.475344 8.825252 0.663487 10.970329 2.892615 0.598303 3.000762 -14.120505 11.099034 -24.501978 9.962122 -0.684117 0.000000 0.000000 0.000000 0.000000 0.000000 0.000000 22.211972 33.937841 -66.650664 56.287279 -35.954963 30.715709 -26.344833 49.595721 -26.495667 0.000000 0.000000 0.000000 16.790943 0.494425 -53.594859 -8.688174 -5.612536 -1.538360 1.977026 1.810333 1.715272 0.000000 0.000000 0.000000
-15.610973 88.945691 388.506587 -4.971884 -10.129057 52.759304 -1.135578 0.609693 -53.439850 0.177300 0.361755 -0.226359 -11.449115 8.292105 5.142276 0.000000 0.000000 0.000000 5.878580 10.360169 0.020947 -0.000000 0.000000 0.000000 -0.000000 0.000000 0.000000 -0.000000 0.000000 0.000000 0.000000 0.000000 0.000000 0.000000 0.000000 0.000000 5.878580 10.360169 0.020947 8.668792 1.327596 1.431685 2.596013 -15.007667 11.721865 -23.950364 9.507503 -0.213429 0.000000 0.000000 0.000000 0.000000 0.000000 0.000000 24.116945 36.666982 -68.183901 65.204986 -38.325873 37.444521 -25.447717 57.645676 -31.777918 0.000000 0.000000 0.000000 16.794531 -0.545678 -53.286778 -9.915618 -5.418493 -1.796435 6.248463 -1.804157 1.477606 0.000000 0.000000 0.000000
